<?xml version="1.0" encoding="UTF-8" standalone="no"?>
<svg width="30px" height="30px" viewBox="0 0 30 30" version="1.1" xmlns="http://www.w3.org/2000/svg" xmlns:xlink="http://www.w3.org/1999/xlink">
    <!-- Generator: Sketch 42 (36781) - http://www.bohemiancoding.com/sketch -->
    <title>lotus</title>
    <desc>Created with Sketch.</desc>
    <defs></defs>
    <g id="Page-1" stroke="none" stroke-width="1" fill="none" fill-rule="evenodd">
        <g id="lotus" fill-rule="nonzero" fill="#DCB99B">
            <path d="M14.7206897,20.99 C13.7626654,19.8239238 13.0174897,18.5083797 12.5172414,17.1 C11.1170792,13.5985388 10.7587338,9.78813217 11.4827586,6.1 C11.8424684,4.63867182 12.4809717,3.25501418 13.3655172,2.02 L14.6896552,0.02 C17.1517241,3.12 18.7655172,6.54 18.3,10.83 C18.0818259,13.7861777 17.251613,16.6698779 15.8586207,19.31 C15.5068966,19.84 15.1344828,20.36 14.7206897,20.99 Z M14.1724138,21 C13.198968,20.9337179 12.2688221,20.5852137 11.5034483,20 C8.23188934,17.8656375 6.28857021,14.2851368 6.33103448,10.47 C6.46244703,8.43323165 6.31285795,6.38861564 5.8862069,4.39 C5.79310345,4.05 5.67931034,3.71 5.54482759,3.25 C5.81665054,3.22547241 6.09024601,3.22547241 6.36206897,3.25 C8.18536565,3.63173473 9.76912896,4.71496907 10.7482759,6.25 C10.851547,6.41152334 10.8986702,6.60074093 10.8827586,6.79 C10.2107392,11.677523 11.3504898,16.6372097 14.1,20.79 C14.1339656,20.8564668 14.158331,20.9271265 14.1724138,21 Z M15.3310345,21 C16.0241379,19.53 16.8310345,18.08 17.4,16.53 C18.5192838,13.4354789 18.8735649,10.1306269 18.4344828,6.88 C18.399372,6.71540211 18.4174281,6.54435029 18.4862069,6.39 C19.5259997,4.66260741 21.3386752,3.50183218 23.3896552,3.25 C23.4998601,3.2424052 23.6104847,3.2424052 23.7206897,3.25 C23.4895922,3.97607124 23.3166674,4.71826455 23.2034483,5.47 C23.0586207,7.47 22.9965517,9.41 22.9344828,11.38 C22.8,15.49 19.4275862,20 15.7965517,20.9 C15.6430918,20.9403889 15.4877469,20.9737593 15.3310345,21 L15.3310345,21 Z M17.0793103,21.03 C19.6694211,19.5393531 21.6466503,17.2288092 22.6758621,14.49 C23.1640661,13.1354326 23.3782994,11.7027621 23.3068966,10.27 C23.241132,9.79612036 23.5315837,9.343536 24,9.19 C25.7233582,8.45523596 27.6869866,8.45523596 29.4103448,9.19 C28.8827586,9.79 28.3758621,10.38 27.8586207,10.93 C26.4000363,12.4441643 25.2396375,14.2029923 24.4344828,16.12 C24.3310345,16.36 24.1965517,16.6 24.0931034,16.84 C23.229049,19.0593707 21.1347208,20.6107249 18.6931034,20.84 C18.1655172,20.93 17.5758621,20.97 17.0793103,21.03 Z M12.4034483,20.95 C8.75172414,20.95 6.46551724,19.64 5.31724138,16.88 C4.23534595,14.2699933 2.63245097,11.8914283 0.6,9.88 C0.413793103,9.7 0.248275862,9.49 0.0827586207,9.3 C0.0535331007,9.23957415 0.0326641448,9.17569196 0.0206896552,9.11 C1.88531446,8.33936756 4.01454727,8.45022529 5.78275862,9.41 C5.9552044,9.5933983 6.05105482,9.83216417 6.05172414,10.08 C6.09250597,11.0843006 6.18919765,12.0857501 6.34137931,13.08 C7.0108854,16.2156885 8.99136589,18.9444337 11.8137931,20.62 C11.9275862,20.72 12.0827586,20.78 12.4034483,20.95 Z M14.6586207,29.09 C13.1896552,27.65 11.6689655,26.32 11.1413793,24.17 C10.8585414,22.9490977 11.4906547,21.7020715 12.662069,21.17 C12.7815125,21.1462903 12.9046944,21.1462903 13.0241379,21.17 C14.337931,21.23 15.6517241,21.29 16.9551724,21.37 C17.1587372,21.385178 17.3531039,21.4582455 17.5137931,21.58 C18.157001,22.106204 18.4373572,22.9385949 18.237931,23.73 C18.1143047,24.2922758 17.9161155,24.8367745 17.6482759,25.35 C16.8771859,26.7508148 15.8663545,28.015345 14.6586207,29.09 L14.6586207,29.09 Z M3.56896552,24.18 C3.84887359,23.187897 4.46891534,22.3170422 5.32758621,21.71 C6.0430325,21.266407 6.79770302,20.8849176 7.58275862,20.57 C7.83836762,20.4904519 8.11335652,20.4904519 8.36896552,20.57 C9.40344828,20.84 10.5103448,21.14 11.5965517,21.44 C11.3746513,21.7088144 11.1903102,22.0046877 11.0482759,22.32 C10.8827586,22.81 10.862069,23.32 10.737931,23.87 C10.7113441,24.1021267 10.6015481,24.3179368 10.4275862,24.48 C8.20692817,25.3595478 5.69837515,25.2498222 3.56896552,24.18 L3.56896552,24.18 Z M17.9482759,21.45 L21.1655172,20.52 C21.2478691,20.5087823 21.3314413,20.5087823 21.4137931,20.52 C23.0068966,20.52 25.2931034,22.43 25.737931,24.13 C24.2586207,25.23 20.2241379,25.55 18.4965517,24.28 C18.8246138,23.3079852 18.6179736,22.2413839 17.9482759,21.45 Z" id="Combined-Shape"></path>
        </g>
    </g>
</svg>